# File produced by Open Asset Import Library (http://www.assimp.sf.net)
# (assimp v5.0.1588609223)

mtllib result.mtl

# 146 vertex positions
v  0.094198421 0.097845279 -0.59172344
v  -0.00029844698 0.044610504 -0.5630191
v  -0.00029845431 0.099287257 -0.61723638
v  0.089244656 0.16420069 -0.56564003
v  -0.00029847401 0.16488582 -0.59760129
v  -0.089841589 0.16420184 -0.56564003
v  0.16404393 0.095264912 -0.47916666
v  -0.00029848857 0.22930942 -0.50846058
v  0.077381633 0.22261776 -0.46931925
v  -0.077978604 0.22260939 -0.46931976
v  0.15441142 0.15923446 -0.45669761
v  0.12843817 0.205373 -0.40701684
v  0.081677765 0.042578164 -0.52999753
v  0.15757272 0.03710578 0.097309142
v  0.17514598 0.09361726 -3.5727023e-08
v  0.18518786 0.093639068 0.1073961
v  0.10581228 0.0065728198 0.13343368
v  0.10581228 0.0065728202 0.091544233
v  0.17270437 0.16028272 -0.10355648
v  0.16381139 0.16043003 -8.9317531e-09
v  0.15757275 0.03710578 -0.097309187
v  0.18518786 0.093639053 -0.10739618
v  0.15016164 0.036962807 -2.6795266e-08
v  0.15757272 0.037105776 0.13918938
v  0.17270437 0.1602827 0.10355648
v  0.10581232 0.0065728202 -0.091544271
v  0.10455989 0.0071646916 -0.18256083
v  0.15016164 0.037540656 -0.19461834
v  0.16381139 0.1598343 -0.20711298
v  0.17514598 0.093705438 -0.21479233
v  -0.00023719172 0.26447779 -0.17880513
v  -0.00027638068 0.26521921 -0.11399806
v  0.071128577 0.25374228 -0.11028902
v  -0.074096583 0.25379729 -0.10283563
v  -0.073168494 0.25251797 -0.21393488
v  -0.12863408 0.21748038 -0.19752699
v  -0.1233715 0.21689332 -0.29862034
v  -1.3611996e-05 -0.0050085322 -0.18856776
v  0.055963621 -0.00097913144 -0.27495468
v  0.053815722 -0.0035443497 -0.18441674
v  -0.05617407 -0.00097911339 -0.27495468
v  -0.00010964624 -0.002257739 -0.28201741
v  0.10466961 0.013901058 -0.36650112
v  0.10658264 0.0086731045 -0.26938906
v  -2.2340117e-05 -0.0057718582 -0.094327517
v  -0.06196972 0.011195851 -0.40897447
v  -0.00023866721 0.011179749 -0.43165022
v  0.061503869 0.011195307 -0.40895915
v  -0.094795309 0.097845018 -0.5917235
v  0.14159839 0.040956203 -0.42732391
v  0.18518786 0.093823165 -0.32218847
v  0.15757278 0.03830196 -0.29192752
v  -0.082274668 0.042577498 -0.52999806
v  0.053832732 -0.0042682681 -0.092289999
v  0.10439865 0.0063876645 -1.7863512e-08
v  -0.18546166 0.093639076 -0.10739618
v  -0.17295602 0.16028261 -0.10355652
v  -0.16365728 0.1598343 -0.20711303
v  -0.17499182 0.093705438 -0.21479228
v  -0.15000749 0.037540641 -0.19461839
v  -0.17295602 0.15904304 -0.31066951
v  -0.18546164 0.09382318 -0.32218844
v  -0.1577881 0.03830206 -0.29192752
v  -1.0718107e-07 -0.0059939995 1.110223e-16
v  -0.053872988 -0.0042682681 0.092289984
v  -0.053467967 -0.0044778786 -8.9317558e-09
v  0.053474929 -0.0044778786 -8.9317558e-09
v  -0.053872988 -0.0042682681 -0.092289999
v  0.053832732 -0.0042682863 0.092289999
v  -2.2340117e-05 -0.0057718582 0.094327495
v  -0.053835254 -0.0035443497 -0.18441674
v  -0.10678174 0.0086731315 -0.26938909
v  -0.10455388 0.0071646827 -0.18256083
v  -0.1421853 0.040956017 -0.42732683
v  -0.10510831 0.01390186 -0.36654443
v  -0.15500841 0.15923469 -0.45669863
v  -0.16464083 0.095264874 -0.47916666
v  -0.1292035 0.20537454 -0.40695691
v  -0.10437059 0.0063876645 -2.6795268e-08
v  -0.10586963 0.0065728291 -0.091544271
v  -0.00027355464 0.2626541 -0.27718711
v  0.069226526 0.25252816 -0.21347904
v  0.072443217 0.2503297 -0.32056433
v  -0.00029848857 0.26092762 -0.34199423
v  -0.074145369 0.25043917 -0.31603706
v  -0.10586963 0.0065728286 0.13343713
v  -0.10586963 0.0065728291 0.091544218
v  -0.053872988 -0.0042682681 0.1341881
v  -0.00029848857 0.26562399 -0.049514271
v  0.072677486 0.25417235 -0.0001075562
v  -0.15000749 0.0369628 -2.6795268e-08
v  -0.1577881 0.037105851 -0.097309187
v  0.1727044 0.15904315 -0.31066948
v  -0.17499183 0.09361726 -2.679527e-08
v  -0.1577881 0.037105851 0.097309142
v  -0.18546166 0.093639076 0.1073961
v  -0.16365728 0.16043 -3.5727027e-08
v  -0.17295602 0.1602826 0.10355644
v  -0.12428767 0.22020544 -0.096529007
v  -0.12857856 0.21855591 -2.679527e-08
v  -0.17295602 0.16028261 0.1454455
v  -0.073162153 0.25417235 0.00010752941
v  -0.074039027 0.25374231 0.11028899
v  -0.00029848857 0.26562461 0.049514234
v  -0.12427039 0.22035274 0.10574768
v  0.12389912 0.22020537 0.096529
v  0.13033162 0.2160625 -0.29629052
v  0.12410233 0.21747984 -0.19752699
v  0.12847048 0.21855591 -8.9317602e-09
v  0.12040354 0.22035144 -0.10574771
v  -0.12427039 0.22035275 0.14763649
v  -0.067322239 0.23663616 0.16913669
v  -0.074039027 0.25374231 0.15217429
v  -0.00077675068 0.24987668 0.1640007
v  -0.00029848857 0.26521972 0.15587704
v  -0.00029848857 0.26521972 0.11399805
v  0.18518786 0.093639068 0.14927325
v  0.16738039 0.096354961 0.16113757
v  0.14370166 0.049584717 0.15930389
v  0.053832732 -0.0042682863 0.13418646
v  0.17270437 0.16028272 0.14543432
v  0.12389912 0.22020537 0.13840528
v  0.11366376 0.2088467 0.1664723
v  0.073513553 0.25379732 0.10283559
v  0.073513553 0.25379732 0.1447106
v  -0.14392968 0.049600463 0.15930721
v  -0.1577881 0.037105851 0.13919491
v  -0.18546166 0.093639076 0.14928131
v  -0.16764756 0.096359782 0.16114777
v  0.099350497 0.022617951 0.15731141
v  0.051809456 0.013511784 0.15462548
v  -2.2340117e-05 -0.0057718582 0.13622662
v  -0.051850349 0.013511597 0.15462713
v  -0.099421151 0.022617765 0.15732037
v  -0.073538452 0.22205339 -0.2627224
v  -0.00024146822 0.23408805 -0.22799616
v  0.069500275 0.2236297 -0.1634859
v  -0.073465399 0.22449727 -0.049300712
v  -0.00029848857 0.23612873 -1.786351e-08
v  0.072949044 0.22449729 0.049300686
v  0.067096449 0.2366437 0.16466983
v  -0.15633543 0.15264143 0.16666423
v  0.15595156 0.15241051 0.16221605
v  -0.11227706 0.20695743 0.16847649
v  4.0582621e-05 0.012191974 0.15523043
v  8.0877044e-06 0.11719543 0.1615199

# 148 UV coordinates
vt 0.70318991 0.83843786 0
vt 0.68747282 0.91576302 0
vt 0.68747282 0.83867747 0
vt 0.70236599 0.80258846 0
vt 0.68747282 0.80270237 0
vt 0.67257988 0.80258864 0
vt 0.7148068 0.83800912 0
vt 0.68747282 0.81340694 0
vt 0.70039284 0.81229508 0
vt 0.67455304 0.81229365 0
vt 0.7132045 0.8017633 0
vt 0.70888478 0.80942971 0
vt 0.70110738 0.91610056 0
vt 0.71373028 0.91701007 0
vt 0.71665341 0.83773535 0
vt 0.71832347 0.83773893 0
vt 0.70512146 0.92208344 0
vt 0.71624714 0.80193746 0
vt 0.71476799 0.80196196 0
vt 0.71249777 0.91703373 0
vt 0.7049132 0.92198503 0
vt 0.71249777 0.91693777 0
vt 0.71476799 0.80186296 0
vt 0.71665341 0.83774996 0
vt 0.68748313 0.81925052 0
vt 0.68747663 0.81937373 0
vt 0.6993528 0.81746674 0
vt 0.67519855 0.81747586 0
vt 0.67535305 0.81726331 0
vt 0.6661278 0.81144142 0
vt 0.6670031 0.81134391 0
vt 0.68752038 0.92400777 0
vt 0.69683057 0.92333823 0
vt 0.69647324 0.92376447 0
vt 0.6781795 0.92333823 0
vt 0.68750441 0.92355072 0
vt 0.70493144 0.92086577 0
vt 0.70524967 0.92173439 0
vt 0.68751884 0.92413461 0
vt 0.67721558 0.92131525 0
vt 0.68748295 0.92131788 0
vt 0.69775206 0.92131531 0
vt 0.67175591 0.8384378 0
vt 0.71107358 0.91637027 0
vt 0.71832347 0.83776951 0
vt 0.71373057 0.91681129 0
vt 0.6738385 0.91610068 0
vt 0.69647616 0.92388475 0
vt 0.7048865 0.92211413 0
vt 0.65667605 0.83773893 0
vt 0.65875602 0.80193746 0
vt 0.66030252 0.80186296 0
vt 0.65841746 0.83774996 0
vt 0.66257292 0.91693777 0
vt 0.65875602 0.80173147 0
vt 0.65667605 0.83776951 0
vt 0.66127872 0.91681129 0
vt 0.68752241 0.92417145 0
vt 0.67856216 0.92388475 0
vt 0.67862964 0.92391962 0
vt 0.69641662 0.92391962 0
vt 0.68751884 0.92413455 0
vt 0.67856848 0.92376447 0
vt 0.66976237 0.92173439 0
vt 0.67013282 0.92198503 0
vt 0.66387397 0.91637027 0
vt 0.67004079 0.92086565 0
vt 0.66174114 0.8017633 0
vt 0.66013902 0.83800906 0
vt 0.66603315 0.80942994 0
vt 0.67016333 0.92211413 0
vt 0.66991413 0.92208344 0
vt 0.68747699 0.81894749 0
vt 0.69903642 0.81726497 0
vt 0.69957149 0.81689972 0
vt 0.68747282 0.81866062 0
vt 0.67519045 0.8169179 0
vt 0.68747282 0.81944102 0
vt 0.69961047 0.8175382 0
vt 0.66257292 0.91703373 0
vt 0.66127872 0.91701007 0
vt 0.71624714 0.80173147 0
vt 0.65841746 0.83773535 0
vt 0.66030252 0.80196196 0
vt 0.66685081 0.81189424 0
vt 0.66613698 0.81162018 0
vt 0.67535394 0.8175382 0
vt 0.67520809 0.8174668 0
vt 0.68747282 0.81944114 0
vt 0.66685367 0.81191874 0
vt 0.70812988 0.81189424 0
vt 0.70919967 0.8112058 0
vt 0.70816344 0.81144136 0
vt 0.70889014 0.81162018 0
vt 0.70754844 0.81191856 0
vt 0.67632538 0.81462437 0
vt 0.68739343 0.81682444 0
vt 0.68747282 0.81937385 0
vt 0.71536171 0.8381902 0
vt 0.7114234 0.91493654 0
vt 0.70642745 0.81000692 0
vt 0.69974959 0.81747586 0
vt 0.66358376 0.91493392 0
vt 0.65963888 0.83819097 0
vt 0.70404679 0.91941732 0
vt 0.69613963 0.92093039 0
vt 0.67889869 0.92093045 0
vt 0.67098647 0.91941738 0
vt 0.67529136 0.81220132 0
vt 0.68747699 0.86582249 0
vt 0.67519045 0.8637929 0
vt 0.68748236 0.814201 0
vt 0.69908208 0.81246322 0
vt 0.69903642 0.86413997 0
vt 0.67535305 0.86413831 0
vt 0.68748313 0.86612552 0
vt 0.6993528 0.86434174 0
vt 0.67519855 0.86435086 0
vt 0.67530346 0.81260735 0
vt 0.68747282 0.86631602 0
vt 0.68747282 0.81454009 0
vt 0.67535394 0.8644132 0
vt 0.68747282 0.86631614 0
vt 0.69961047 0.8644132 0
vt 0.69965553 0.81260735 0
vt 0.69974959 0.86435086 0
vt 0.69868225 0.81462562 0
vt 0.66152048 0.80066782 0
vt 0.71346068 0.8006295 0
vt 0.66884828 0.80969298 0
vt 0.68752927 0.92114973 0
vt 0.56247669 0.38012612 0
vt 0.53463888 0.38358903 0
vt 0.53653991 0.42114973 0
vt 0.58848011 0.42111146 0
vt 0.59036171 0.38358831 0
vt 0.5385772 0.30684268 0
vt 0.55131835 0.40715361 0
vt 0.56260717 0.40495479 0
vt 0.54595381 0.30236191 0
vt 0.56247133 0.3006295 0
vt 0.55386096 0.30084884 0
vt 0.57901412 0.30236185 0
vt 0.5711019 0.30084878 0
vt 0.57367522 0.40715486 0
vt 0.58641684 0.30684531 0
vt 0.58115232 0.41208625 0
vt 0.54357314 0.41177237 0

# 152 vertex normals
vn 56.463219 -20.633398 -79.913506
vn -0.00014663559 -85.438148 -51.96463
vn 0.00020740497 -21.641394 -97.630165
vn 53.629242 55.376881 -63.696983
vn -0.00044807442 59.069866 -80.689224
vn -53.626579 55.373577 -63.702099
vn 90.998718 -18.408003 -37.153458
vn -0.05230435 91.116959 -41.203114
vn 40.487122 86.078766 -30.842173
vn -40.74123 86.024101 -30.659531
vn 84.42688 45.392101 -28.489626
vn 66.155746 73.255753 -16.031576
vn 36.119648 -83.357582 -41.795753
vn 74.621101 -66.511169 -2.820471
vn 99.16066 -12.929196 5.0004464e-06
vn 99.070747 -12.997319 -4.007082
vn 33.137844 -89.114998 30.99033
vn 36.91486 -92.934891 -0.6319648
vn 91.694984 39.898155 -0.40990373
vn 91.86837 39.497677 -0.36916041
vn 75.29287 -65.809959 0.18308945
vn 99.159744 -12.922049 -0.60558641
vn 74.599106 -66.595604 8.0470763e-06
vn 66.920723 -65.876526 34.378773
vn 91.52227 40.190331 -2.9003279
vn 37.471188 -92.713737 -0.27081388
vn 36.917694 -92.928902 -1.1413411
vn 74.225983 -67.003754 -1.0009074
vn 91.649109 40.002888 0.4574827
vn 99.169769 -12.813478 1.082186
vn 18.826912 94.230278 -27.680355
vn 0.22455138 99.995483 -0.92351514
vn 41.252552 89.286552 -18.059275
vn -38.849277 90.643936 16.565363
vn -20.606728 94.7136 -24.590601
vn -69.227158 72.149559 -1.4292209
vn -61.897858 78.538322 -0.62242275
vn 0.00094989466 -99.982391 -1.87641
vn 10.578034 -99.304604 -5.1673379
vn 11.458489 -99.329079 -1.5610851
vn -10.576894 -99.305908 -5.1445403
vn 0.00049077574 -99.811813 -6.1321311
vn 33.199944 -93.789459 -10.064866
vn 35.808407 -93.322693 -2.9382045
vn -0.00045080564 -99.99865 -0.51887
vn -15.411268 -97.46981 -16.190384
vn 0.0020392041 -98.305206 -18.332678
vn 15.425076 -97.46479 -16.207449
vn -56.463207 -20.6341 -79.913322
vn 63.242661 -74.698326 -20.506742
vn 98.92572 -14.00952 -4.1755567
vn 74.585129 -66.596565 -1.3990309
vn -36.11895 -83.360832 -41.789875
vn 11.759036 -99.305107 -0.47026852
vn 37.343578 -92.765602 2.8272916e-06
vn -99.157837 -12.935476 -0.62951642
vn -92.310242 38.45541 -0.0073902798
vn -91.838753 39.561813 -0.71167284
vn -99.168747 -12.81667 1.1370401
vn -74.202362 -67.029778 -1.008847
vn -91.810562 39.595261 -1.7426264
vn -98.940773 -13.984875 -3.8919339
vn -74.643425 -66.535782 -1.1612713
vn 0.00027920061 -100 -2.4788424e-06
vn -11.724331 -99.31031 0.056709819
vn -11.75012 -99.307274 -9.7023076e-08
vn 11.752522 -99.306992 -4.1677167e-06
vn -11.761909 -99.304771 -0.46870929
vn 11.724236 -99.310318 0.060792968
vn -0.00035059292 -99.999939 0.11008358
vn -11.453692 -99.329788 -1.5513452
vn -35.845303 -93.311646 -2.837445
vn -36.920219 -92.928017 -1.1317031
vn -63.292469 -74.683189 -20.407982
vn -33.207741 -93.793938 -9.9971294
vn -84.321281 45.797791 -28.151096
vn -91.030029 -18.404596 -37.078377
vn -66.228279 73.486588 -14.612829
vn -37.330997 -92.770668 -7.2612602e-07
vn -37.472263 -92.713318 -0.26355487
vn -13.298969 96.888901 20.872938
vn 10.324798 96.641693 23.532545
vn 34.182838 93.642426 -7.9138513
vn 0.017373143 99.310646 -11.72161
vn -36.464523 92.588715 9.8828077
vn -33.076237 -89.137993 30.99003
vn -36.88649 -92.945885 -0.67061692
vn -10.975145 -93.567535 33.535988
vn -15.572638 95.7686 24.204712
vn 16.747362 95.797523 23.288664
vn -74.560722 -66.638565 -1.534394e-06
vn -75.294861 -65.807617 0.2023924
vn 92.238174 38.592434 -1.6563048
vn -99.158775 -12.943624 -8.8390152e-07
vn -74.592422 -66.53746 -2.9558511
vn -99.061928 -13.00861 -4.184516
vn -92.097435 38.962315 0.019882364
vn -91.603577 39.989735 -3.0993335
vn -64.792854 76.097 3.3365777
vn -69.59037 71.813377 -0.13474941
vn -85.144897 39.199753 34.838581
vn -16.501471 95.738052 -23.705032
vn -36.14143 93.240341 0.18650308
vn 15.667722 95.738686 -24.261629
vn -68.114815 73.212929 -0.48997468
vn 63.985752 76.741806 -4.0642924
vn 67.868217 73.401993 -2.4603376
vn 67.747253 73.553673 0.4082956
vn 69.26339 72.126762 -0.55936211
vn 64.699677 76.094078 -4.8624034
vn -64.100708 68.663651 34.298737
vn -13.573011 33.686943 93.171684
vn -34.525021 85.132904 39.502048
vn 3.4158475 35.661682 93.36261
vn 1.8658479 89.809052 43.941475
vn -0.074879244 99.999687 0.23874234
vn 89.596519 -13.826976 42.205204
vn 38.30658 -8.3559475 91.993393
vn 29.146126 -35.337189 88.891991
vn 10.981181 -93.566635 33.536537
vn 84.239807 40.393158 35.665775
vn 64.586212 70.944107 28.205576
vn 32.81813 34.659992 87.872948
vn 38.978424 90.500824 -17.037685
vn 36.120178 86.902878 33.811565
vn -29.116297 -35.372238 88.887825
vn -66.852142 -65.948097 34.375008
vn -90.322586 -14.167866 40.510506
vn -40.470398 -10.583238 90.830299
vn 14.315894 -47.245495 86.965042
vn 4.1441712 -47.125416 88.102333
vn -0.0013891577 -93.06926 36.580238
vn -4.1339974 -47.128456 88.101181
vn -14.285101 -47.244915 86.970421
vn -37.430145 81.215958 44.754349
vn -33.321323 81.820747 46.851402
vn -41.991695 78.469742 45.598213
vn 25.631767 82.307808 -50.679752
vn 22.538494 82.611954 -51.645729
vn 52.667164 72.944733 -43.649006
vn -44.599487 77.83564 44.187088
vn -28.915098 82.427429 48.678905
vn 32.635696 80.980675 -48.754917
vn 28.922371 82.427887 -48.673813
vn -32.552258 81.013985 48.755352
vn 44.53886 77.878838 -44.172123
vn 17.646257 39.234043 90.273468
vn -39.078312 14.799874 90.850693
vn 38.924553 18.153873 90.306786
vn -29.846991 29.059925 90.910278
vn 0.0065776496 -43.565975 90.011139
vn 0.70323431 -4.9391437 99.875473

# Mesh 'baguette_half' with 288 faces
g baguette_half
usemtl tiny_treats_1
f  1/1/1 2/2/2 3/3/3
f  1/1/1 3/3/3 4/4/4
f  3/3/3 5/5/5 4/4/4
f  3/3/3 6/6/6 5/5/5
f  4/4/4 7/7/7 1/1/1
f  4/4/4 8/8/8 9/9/9
f  8/8/8 6/6/6 10/10/10
f  8/8/8 4/4/4 5/5/5
f  9/9/9 11/11/11 4/4/4
f  11/11/11 9/9/9 12/12/12
f  7/7/7 4/4/4 11/11/11
f  7/7/7 13/13/13 1/1/1
f  14/14/14 15/15/15 16/16/16
f  14/14/14 17/17/17 18/17/18
f  15/15/15 19/18/19 20/19/20
f  15/15/15 21/14/21 22/16/22
f  15/15/15 14/14/14 23/20/23
f  16/16/16 24/14/24 14/14/14
f  16/16/16 15/15/15 25/18/25
f  23/20/23 26/17/26 21/14/21
f  23/20/23 14/14/14 18/17/18
f  21/14/21 15/15/15 23/20/23
f  21/14/21 27/21/27 28/22/28
f  22/16/22 29/23/29 19/18/19
f  22/16/22 28/22/28 30/24/30
f  31/25/31 32/26/32 33/27/33
f  31/25/31 34/28/34 32/26/32
f  34/28/34 35/29/35 36/30/36
f  35/29/35 34/28/34 31/25/31
f  35/29/35 37/31/37 36/30/36
f  38/32/38 39/33/39 40/34/40
f  38/32/38 41/35/41 42/36/42
f  39/33/39 38/32/38 42/36/42
f  39/33/39 43/37/43 44/38/44
f  40/34/40 44/38/44 27/21/27
f  40/34/40 45/39/45 38/32/38
f  42/36/42 46/40/46 47/41/47
f  42/36/42 48/42/48 39/33/39
f  2/2/2 49/43/49 3/3/3
f  2/2/2 1/1/1 13/13/13
f  13/13/13 7/7/7 50/44/50
f  13/13/13 47/41/47 2/2/2
f  50/44/50 51/45/51 52/46/52
f  50/44/50 48/42/48 13/13/13
f  48/42/48 42/36/42 47/41/47
f  48/42/48 50/44/50 43/37/43
f  43/37/43 39/33/39 48/42/48
f  43/37/43 52/46/52 44/38/44
f  47/41/47 13/13/13 48/42/48
f  47/41/47 53/47/53 2/2/2
f  27/21/27 54/48/54 40/34/40
f  27/21/27 21/14/21 26/17/26
f  28/22/28 44/38/44 52/46/52
f  28/22/28 22/16/22 21/14/21
f  26/17/26 23/20/23 55/49/55
f  56/50/56 57/51/57 58/52/58
f  56/50/56 59/53/59 60/54/60
f  56/50/56 58/52/58 59/53/59
f  57/51/57 36/30/36 58/52/58
f  58/52/58 37/31/37 61/55/61
f  59/53/59 58/52/58 61/55/61
f  59/53/59 62/56/62 63/57/63
f  59/53/59 61/55/61 62/56/62
f  64/58/64 65/59/65 66/60/66
f  64/58/64 54/48/54 67/61/67
f  64/58/64 68/59/68 45/39/45
f  64/58/64 69/48/69 70/62/70
f  54/48/54 64/58/64 45/39/45
f  54/48/54 27/21/27 26/17/26
f  67/61/67 54/48/54 55/49/55
f  45/39/45 40/34/40 54/48/54
f  45/39/45 71/63/71 38/32/38
f  60/54/60 72/64/72 73/65/73
f  60/54/60 59/53/59 63/57/63
f  60/54/60 63/57/63 72/64/72
f  63/57/63 74/66/74 75/67/75
f  62/56/62 76/68/76 77/69/77
f  62/56/62 77/69/77 74/66/74
f  74/66/74 63/57/63 62/56/62
f  74/66/74 46/40/46 75/67/75
f  77/69/77 53/47/53 74/66/74
f  72/64/72 63/57/63 75/67/75
f  18/17/18 55/49/55 23/20/23
f  55/49/55 54/48/54 26/17/26
f  55/49/55 69/48/69 67/61/67
f  41/35/41 75/67/75 46/40/46
f  41/35/41 38/32/38 71/63/71
f  41/35/41 46/40/46 42/36/42
f  41/35/41 72/64/72 75/67/75
f  71/63/71 72/64/72 41/35/41
f  71/63/71 45/39/45 68/59/68
f  61/55/61 78/70/78 76/68/76
f  61/55/61 76/68/76 62/56/62
f  68/59/68 79/71/79 80/72/80
f  68/59/68 64/58/64 66/60/66
f  68/59/68 73/65/73 71/63/71
f  44/38/44 28/22/28 27/21/27
f  44/38/44 40/34/40 39/33/39
f  46/40/46 74/66/74 53/47/53
f  53/47/53 77/69/77 49/43/49
f  53/47/53 47/41/47 46/40/46
f  49/43/49 2/2/2 53/47/53
f  49/43/49 77/69/77 6/6/6
f  81/73/81 82/74/82 83/75/83
f  81/73/81 83/75/83 84/76/84
f  81/73/81 84/76/84 85/77/85
f  84/76/84 83/75/83 9/9/9
f  84/76/84 9/9/9 8/8/8
f  84/76/84 10/10/10 85/77/85
f  85/77/85 78/70/78 37/31/37
f  65/59/65 86/72/86 87/72/87
f  65/59/65 64/58/64 70/62/70
f  65/59/65 79/71/79 66/60/66
f  70/62/70 88/59/88 65/59/65
f  69/48/69 55/49/55 18/17/18
f  69/48/69 64/58/64 67/61/67
f  89/78/89 90/79/90 33/27/33
f  89/78/89 32/26/32 34/28/34
f  89/78/89 33/27/33 32/26/32
f  76/68/76 6/6/6 77/69/77
f  76/68/76 78/70/78 10/10/10
f  6/6/6 3/3/3 49/43/49
f  6/6/6 76/68/76 10/10/10
f  6/6/6 8/8/8 5/5/5
f  10/10/10 84/76/84 8/8/8
f  78/70/78 85/77/85 10/10/10
f  80/72/80 91/80/91 92/81/92
f  80/72/80 73/65/73 68/59/68
f  73/65/73 72/64/72 71/63/71
f  73/65/73 92/81/92 60/54/60
f  30/24/30 93/82/93 29/23/29
f  30/24/30 52/46/52 51/45/51
f  94/83/94 95/81/95 96/50/96
f  94/83/94 57/51/57 56/50/56
f  94/83/94 97/84/97 57/51/57
f  94/83/94 98/51/98 97/84/97
f  94/83/94 56/50/56 92/81/92
f  97/84/97 99/85/99 57/51/57
f  52/46/52 30/24/30 28/22/28
f  52/46/52 43/37/43 50/44/50
f  51/45/51 11/11/11 93/82/93
f  51/45/51 7/7/7 11/11/11
f  51/45/51 50/44/50 7/7/7
f  98/51/98 100/86/100 97/84/97
f  98/51/98 94/83/94 96/50/96
f  96/50/96 101/51/101 98/51/98
f  79/71/79 65/59/65 87/72/87
f  79/71/79 68/59/68 66/60/66
f  87/72/87 91/80/91 79/71/79
f  102/87/102 103/88/103 104/89/104
f  102/87/102 99/85/99 100/86/100
f  102/87/102 105/90/105 103/88/103
f  99/85/99 34/28/34 36/30/36
f  99/85/99 97/84/97 100/86/100
f  100/86/100 98/51/98 105/90/105
f  25/18/25 15/15/15 20/19/20
f  20/19/20 106/91/106 25/18/25
f  29/23/29 107/92/107 108/93/108
f  29/23/29 22/16/22 30/24/30
f  19/18/19 109/94/109 20/19/20
f  19/18/19 15/15/15 22/16/22
f  19/18/19 108/93/108 110/95/110
f  93/82/93 30/24/30 51/45/51
f  93/82/93 12/12/12 107/92/107
f  93/82/93 11/11/11 12/12/12
f  107/92/107 82/74/82 108/93/108
f  107/92/107 29/23/29 93/82/93
f  82/74/82 110/95/110 108/93/108
f  82/74/82 107/92/107 83/75/83
f  83/75/83 12/12/12 9/9/9
f  83/75/83 107/92/107 12/12/12
f  37/31/37 58/52/58 36/30/36
f  37/31/37 78/70/78 61/55/61
f  36/30/36 57/51/57 99/85/99
f  111/90/111 112/96/112 113/88/113
f  111/90/111 113/88/113 103/88/103
f  111/90/111 103/88/103 105/90/105
f  113/88/113 114/97/114 115/98/115
f  113/88/113 115/98/115 116/98/116
f  113/88/113 116/98/116 103/88/103
f  105/90/105 102/87/102 100/86/100
f  24/14/24 16/16/16 117/16/117
f  24/14/24 118/99/118 119/100/119
f  24/14/24 117/16/117 118/99/118
f  17/17/17 120/48/120 69/48/69
f  17/17/17 69/48/69 18/17/18
f  17/17/17 24/14/24 119/100/119
f  17/17/17 14/14/14 24/14/24
f  90/79/90 110/95/110 33/27/33
f  90/79/90 106/91/106 109/94/109
f  108/93/108 19/18/19 29/23/29
f  110/95/110 90/79/90 109/94/109
f  109/94/109 19/18/19 110/95/110
f  106/91/106 20/19/20 109/94/109
f  121/18/121 117/16/117 16/16/16
f  121/18/121 118/99/118 117/16/117
f  121/18/121 122/91/122 123/101/123
f  121/18/121 16/16/16 25/18/25
f  92/81/92 56/50/56 60/54/60
f  92/81/92 73/65/73 80/72/80
f  91/80/91 94/83/94 92/81/92
f  91/80/91 87/72/87 95/81/95
f  91/80/91 80/72/80 79/71/79
f  95/81/95 94/83/94 91/80/91
f  122/91/122 124/102/124 125/102/125
f  122/91/122 25/18/25 106/91/106
f  122/91/122 121/18/121 25/18/25
f  124/102/124 122/91/122 106/91/106
f  125/102/125 123/101/123 122/91/122
f  125/102/125 116/98/116 115/98/115
f  86/72/86 65/59/65 88/59/88
f  86/72/86 126/103/126 127/81/127
f  86/72/86 127/81/127 95/81/95
f  86/72/86 95/81/95 87/72/87
f  127/81/127 128/50/128 96/50/96
f  127/81/127 129/104/129 128/50/128
f  127/81/127 96/50/96 95/81/95
f  120/48/120 130/105/130 131/106/131
f  120/48/120 132/62/132 70/62/70
f  120/48/120 70/62/70 69/48/69
f  132/62/132 133/107/133 88/59/88
f  104/89/104 116/98/116 124/102/124
f  116/98/116 125/102/125 124/102/124
f  116/98/116 104/89/104 103/88/103
f  88/59/88 134/108/134 86/72/86
f  88/59/88 70/62/70 132/62/132
f  135/109/135 81/110/81 85/111/85
f  135/109/135 136/112/136 81/110/81
f  85/111/85 37/31/37 135/109/135
f  136/112/136 137/113/137 82/114/82
f  35/115/35 136/112/138 135/109/139
f  35/115/35 31/116/31 136/112/138
f  135/109/139 37/31/37 35/115/35
f  31/116/31 33/117/33 137/113/140
f  33/117/33 110/95/110 137/113/140
f  137/113/140 136/112/138 31/116/31
f  137/113/137 110/95/110 82/114/82
f  82/114/82 81/110/81 136/112/136
f  34/118/34 99/85/99 138/119/141
f  138/119/141 89/120/89 34/118/34
f  138/119/141 139/121/142 89/120/89
f  138/119/143 99/85/99 102/122/102
f  102/122/102 104/123/104 139/121/144
f  102/122/102 139/121/144 138/119/143
f  89/120/89 139/121/142 90/124/90
f  139/121/142 140/125/145 90/124/90
f  139/121/144 104/123/104 140/125/146
f  104/123/104 124/126/124 140/125/146
f  124/126/124 106/91/106 140/125/146
f  140/125/145 106/91/106 90/124/90
f  115/98/115 141/127/147 125/102/125
f  101/51/101 111/90/111 105/90/105
f  101/51/101 129/104/129 142/128/148
f  101/51/101 105/90/105 98/51/98
f  101/51/101 96/50/96 128/50/128
f  123/101/123 125/102/125 141/127/147
f  123/101/123 143/129/149 121/18/121
f  141/127/147 115/98/115 114/97/114
f  112/96/112 111/90/111 144/130/150
f  142/128/148 111/90/111 101/51/101
f  142/128/148 144/130/150 111/90/111
f  129/104/129 127/81/127 126/103/126
f  129/104/129 101/51/101 128/50/128
f  126/103/126 86/72/86 134/108/134
f  134/108/134 88/59/88 133/107/133
f  114/97/114 113/88/113 112/96/112
f  133/107/133 132/62/132 145/131/151
f  130/105/130 120/48/120 17/17/17
f  131/106/131 145/131/151 132/62/132
f  131/106/131 132/62/132 120/48/120
f  119/100/119 130/105/130 17/17/17
f  118/99/118 121/18/121 143/129/149
f  146/132/152 118/133/118 143/134/149
f  146/132/152 142/135/148 129/136/129
f  146/132/152 119/137/119 118/133/118
f  146/132/152 141/138/147 114/139/114
f  146/132/152 130/140/130 119/137/119
f  146/132/152 145/141/151 131/142/131
f  146/132/152 131/142/131 130/140/130
f  146/132/152 134/143/134 133/144/133
f  146/132/152 133/144/133 145/141/151
f  146/132/152 114/139/114 112/145/112
f  146/132/152 126/146/126 134/143/134
f  146/132/152 129/136/129 126/146/126
f  146/132/152 144/147/150 142/135/148
f  146/132/152 143/134/149 123/148/123
f  146/132/152 112/145/112 144/147/150
f  146/132/152 123/148/123 141/138/147

